<svg xmlns="http://www.w3.org/2000/svg" viewBox="0 0 181 44">
  <path fill="#B8B8B8" d="M174.8 20.6c.5-.8 1.1-1.4 1.8-1.8.6-.4 1.3-.6 2-.6.4 0 .8.1 1.1.3s.6.4.8.7c.2.3.3.7.4 1.2s.1 1 0 1.6l-.8 6.5h-1.8l.8-6.5c.1-.8.1-1.4-.1-1.8-.2-.4-.6-.6-1.1-.6-.3 0-.6.1-.9.2-.3.2-.6.4-.9.7-.3.3-.6.7-.8 1.1-.3.4-.5.9-.7 1.4l-.7 5.3h-1.8l1.8-14.7h1.8l-.9 7zm-5.2 7c-.3.3-.6.5-.9.6-.3.1-.6.3-1 .3-.3.1-.7.1-1.1.1-.6 0-1.1-.1-1.6-.3-.5-.2-.8-.5-1.1-.8-.3-.4-.5-.8-.7-1.3-.2-.5-.2-1.1-.2-1.7 0-.8.1-1.6.4-2.4.3-.8.6-1.4 1.1-2 .5-.6 1-1 1.6-1.4s1.3-.5 2.1-.5c.7 0 1.2.1 1.7.4s.9.6 1.2 1l-.6.7c0 .1-.1.1-.2.1h-.2c-.1 0-.2 0-.3-.1-.1-.1-.2-.2-.4-.3-.1-.1-.3-.2-.5-.3s-.5-.1-.8-.1c-.5 0-.9.1-1.3.4s-.8.6-1.1 1c-.3.4-.5.9-.7 1.5-.2.6-.3 1.2-.3 1.9 0 .4 0 .8.1 1.1.1.3.2.6.4.9.2.2.4.4.7.5.3.1.6.2.9.2.4 0 .8-.1 1.1-.2s.6-.3.8-.4c.2-.2.4-.3.5-.4.1-.1.3-.2.4-.2.1 0 .2.1.3.2l.4.5c-.1.4-.4.8-.7 1zm-8.2-1c-.3.4-.7.7-1 .9-.3.2-.7.5-1 .6-.3.2-.7.3-1.1.4-.4.1-.8.1-1.2.1-.6 0-1.1-.1-1.6-.3s-.9-.5-1.2-.8c-.3-.4-.6-.8-.7-1.3-.2-.5-.3-1.1-.3-1.7 0-.5.1-1 .2-1.6.1-.5.3-1 .5-1.5s.5-.9.8-1.3c.3-.4.7-.7 1-1s.8-.5 1.3-.7c.5-.2 1-.2 1.5-.2s1 .1 1.3.2.7.3.9.6c.2.2.4.5.5.8s.2.5.2.8c0 .4-.1.8-.3 1.2s-.5.7-1 1-1.1.6-2 .8c-.8.2-1.9.4-3.2.5v.4c0 .9.2 1.6.6 2 .4.5 1 .7 1.8.7.3 0 .6 0 .9-.1.2-.1.5-.1.7-.2.2-.1.4-.2.5-.3.1-.1.3-.2.4-.3.1-.1.2-.2.3-.2.1-.1.2-.1.3-.1.1 0 .2.1.3.2l.6.4zm-2.8-7.1c-.4 0-.8.1-1.2.3-.4.2-.7.4-.9.7-.3.3-.5.7-.7 1.1s-.3.9-.5 1.3c1-.1 1.8-.3 2.5-.4.6-.2 1.1-.3 1.4-.5.3-.2.6-.4.7-.6.1-.2.2-.5.2-.7 0-.1 0-.2-.1-.4s-.1-.2-.3-.4-.3-.2-.5-.3c-.1-.1-.3-.1-.6-.1zm-11.2 7.1v-.5c0-.1 0-.3.1-.5s.1-.4.1-.8l.6-5.1H147c-.1 0-.2 0-.2-.1-.1-.1-.1-.2-.1-.3l.1-.7 1.6-.2.8-3.1c0-.1.1-.2.2-.2s.2-.1.3-.1h.9l-.4 3.5h2.7l-.2 1.3H150l-.6 5c0 .3-.1.5-.1.7v.7c0 .3.1.6.2.8.2.2.4.2.6.2.2 0 .3 0 .5-.1s.2-.1.3-.2.2-.1.2-.2.1-.1.2-.1h.1l.1.1.4.9c-.3.3-.7.5-1.1.7s-.8.2-1.3.2c-.6 0-1.2-.2-1.5-.5-.4-.2-.6-.8-.6-1.4z"/>
  <path fill="#FF5C1A" d="M107 10.4H95.8c-.3 0-1.2 0-1.3 1.5-.7 5.8-2 15.2-2 15.6 0 .9 2 1 3 1 1.1 0 3 0 3.1-1l.7-5.3c0-.1.1-.2.1-.2l4.9-.6c.5-.1 1-1.4 1-2.4 0-.6-.1-1.6-.5-1.6l-4.7-.5c-.1 0-.1 0-.1-.2s.2-1.2.2-1.4c0-.1.1-.2.2-.2h6.1c.5 0 1-2.3 1-3.1 0-.6-.1-1.6-.5-1.6zm6.8 13.4c-.9 0-1.1-.9-1.1-2.4 0-2 .4-4.1 1.9-4.1.9 0 1.2.7 1.2 2.2 0 2.3-.7 4.3-2 4.3zm1.3-11.4c-4.4 0-8.4 3.2-8.4 9 0 5 2.9 7.1 6.6 7.1 4.4 0 8.4-3.1 8.4-9 0-4.8-2.9-7.1-6.6-7.1zm20 8.5c2.2-2.3 3.4-5.1 3.4-7.7 0-.5-.1-.9-1.2-.9h-2.8c-1 0-1.5.1-1.7.7-.4 1.4-1.2 3.2-1.6 3.8l-1.5-3.8c-.2-.4-.5-.7-1.1-.7h-3.2c-1.2 0-1.5.3-1.5.9-.1 1-.3 3-.3 3.4 0 .4 0 .7.3.9l4 3.3c-1.5 1.5-3.9 2.6-5 3.2-.3.2-.4.5-.5 1-.1 1-.1 2.4-.1 2.6 0 .4.2.8.8.8h2.4c1.1 0 1.7-.2 2.6-.8 1-.7 1.8-1.2 2.7-2.3l.5 2.5c.1.4.4.7 1 .7h3.6c.9 0 1.6-.3 1.7-1 .1-1 .3-2.8.3-3.1 0-.4-.3-.9-.7-1.3l-2.1-2.2z"/>
  <path fill="#2D2E2B" d="M69.7 10c-.1-.1-.3-.1-.6-.1-.9-.1-3.1 0-3.5 0-.9.1-1.1 1-1.3 2.5-.3 1.6-.6 2.6-.9 4.5l-3.4-.3c-.1 0-.1 0-.1-.2s.6-3 .7-3.9c0-.5.2-1.4 0-1.9-.1-.2-.1-.4-.5-.6h-.4c-.2-.1-3.6 0-3.6 0h-.2c-.4.1-1.1 1-1.4 2.5-.8 5.7-2.5 15.1-2.5 15.4 0 .9 2 .8 3 .8 1.1 0 3 .2 3.2-.8l.9-6c0-.1.1-.2.1-.2l3.5-.3c-.6 3.3-1 6.2-1 6.4 0 .9 2 1 2.9 1 1.1 0 3 0 3.2-1 0 0 2.5-16.8 2.5-17.2-.1-.3-.4-.5-.6-.6zm6 3.8c1.1 0 2-.9 2-1.9 0-1.1-.9-2-2-2s-2 .9-2 1.9c0 1.1.9 2 2 2zm1.8 1.5c-1.1-.3-4.2-.2-4.2-.2-.3 0-1.1 0-1.4 1.5-.9 5.8-1.8 10.7-1.8 11.1 0 1 2.1 1 3 1 1.1 0 3 0 3.2-1 0 0 1.6-10.1 1.6-11 .1-.7.2-1.2-.4-1.4zm13.5 2l-2.5-.6c-.1 0-.1 0-.1-.2s.5-2.3.5-3.1c0-.7 0-1.5-.6-1.7-.2-.1-4.1 0-4.1 0-.3 0-1.2 0-1.4 1.5-.1 1.1-.3 2-.4 3.2 0 0-.1 0-.1.1-.6.2-1.6.3-1.6.3-.4-.1-.8.8-1 1.4-.3 1-.4 2.4.1 2.7l1.9.8c-.4 3-.8 5.4-.8 5.8 0 1 2.1 1 3 1 1.1 0 3 0 3.2-1l.7-5.4c0-.1.1-.2.1-.2l2.7-.6c.5-.1 1-1.4 1-2.5-.1-.5-.2-1.4-.6-1.5z"/>
  <path fill="#FF5C1A" d="M32.9 19.8c-.8 0-1.5-.7-1.5-1.5s.7-1.5 1.5-1.5 1.5.7 1.5 1.5-.7 1.5-1.5 1.5zm-3.2-2.9c-.8 0-1.5-.7-1.5-1.5s.7-1.5 1.5-1.5 1.5.7 1.5 1.5-.6 1.5-1.5 1.5zm0 6c-.8 0-1.5-.7-1.5-1.5s.7-1.5 1.5-1.5 1.5.7 1.5 1.5-.6 1.5-1.5 1.5zm-3-3.1c-.8 0-1.5-.7-1.5-1.5s.7-1.5 1.5-1.5 1.5.7 1.5 1.5-.7 1.5-1.5 1.5zm-11.7.1h-1.6v1.6c0 .8-.6 1.4-1.3 1.4-.7 0-1.3-.6-1.3-1.4v-1.6H9.2c-.8 0-1.4-.6-1.4-1.3 0-.7.6-1.3 1.4-1.3h1.6v-1.6c0-.8.6-1.4 1.3-1.4.7 0 1.3.6 1.3 1.4v1.6H15c.8 0 1.4.6 1.4 1.3 0 .7-.6 1.3-1.4 1.3zM41.7 0s-2.9-.3-11 4.4c0 0-5.8-.6-10-.6s-10 .6-10 .6C2.6-.3 0 0 0 0c-.4 3.3 1.6 12.4 1.6 12.4-4.8 15.3 5.6 20.8 6.8 20.4 1.3-.4 1.3-.8 1.8-.8 3.1-.1 3.8 8.3 5.9 10.2 2 1.9 4.3 1.8 4.4 1.8.1 0 2.5.1 4.4-1.8 2-2 2.8-10.3 5.9-10.2.6 0 .6.4 1.9.8 1.3.4 11.7-5.1 6.8-20.4.1 0 2.6-9.1 2.2-12.4z"/>
</svg>
