<svg xmlns="http://www.w3.org/2000/svg" x="0px" y="0px" viewBox="-397.7 314 41.9 44">
  <path fill="#FF5C1A" class="st0" d="M-355.9,314c0,0-2.9-0.3-11.1,4.4c0,0-5.9-0.6-10-0.6s-10,0.6-10,0.6c-8.2-4.7-10.7-4.4-10.7-4.4c-0.4,3.3,1.7,12.4,1.7,12.4c-4.8,15.3,5.6,20.8,6.9,20.4s1.3-0.8,1.9-0.8c3.1-.1,3.8,8.3,5.9,10.2c2,1.9,4.3,1.8,4.5,1.8c0.2,0,2.5,0.1,4.5-1.8c2-2,2.8-10.3,5.9-10.2c0.6,0,0.6,0.4,1.9,0.8c1.3,0.4,11.7-5.1,6.9-20.4C-358,326.4-355.6,317.3-355.9,314L-355.9,314L-355.9,314z"/>
  <path fill="#ffffff" d="M-379.4,331h-8v-2h8V331z M-368.4,329h-10v2h10V329z M-376.4,332h-11v2h11V332z M-370.4,332h-5v2h5V332z M-364.4,332h-5v2h5V332z M-382.4,335h-5v2h5V335z M-376.4,335h-5v2h5V335z M-365.4,335h-10v2h10V335z"/>
</svg>
