<svg id="Layer_1" xmlns="http://www.w3.org/2000/svg" width="69.1" height="72.4" viewBox="-443.3 244.9 69.1 72.4">
  <style>
    .st0{fill:#333333;}
  </style>
  <path class="st0" d="M-374.2 245s-4.8-.6-18.3 7c0 0-9.6-.8-16.5-.8-7 0-16.5 1-16.5 1-13.5-7.8-17.6-7.3-17.6-7.3-.7 5.4 2.6 20.3 2.6 20.3-8 25 9.2 34.2 11.3 33.5 2-.6 2-1.3 3-1.3 5 0 6.3 13.6 9.7 16.8 3.3 3 7 3 7.3 3 .2 0 4 0 7.3-3 3.4-3.2 4.6-17 9.7-16.8 1 0 1 .7 3 1.3 2.2.6 19.4-8.5 11.4-33.5 0 0 4-15 3.4-20.4zm-36.4 25.3h15.2v2h-15.2v-2zm12 5v2h-7v-2h7zm-26.8-5h12v2h-12v-2zm7 11.8h-7v-2h7v2zm9.8 0h-7v-2h7v2zm0-4.8h-16.8v-2h16.8v2zm18 5h-15v-2h15v2zm1.8-5h-7v-2h7v2z"/>
</svg>
