<svg xmlns="http://www.w3.org/2000/svg" viewBox="0 0 80 80">
  <path d="M40,0C17.9,0,0,17.9,0,40s17.9,40,40,40s40-17.9,40-40S62.1,0,40,0z M26,53h-4c-1.1,0-2-0.9-2-2s0.9-2,2-2h4c1.1,0,2,0.9,2,2S27.1,53,26,53z M26,42h-4c-1.1,0-2-0.9-2-2s0.9-2,2-2h4c1.1,0,2,0.9,2,2S27.1,42,26,42z M26,31h-4c-1.1,0-2-0.9-2-2s0.9-2,2-2h4c1.1,0,2,0.9,2,2S27.1,31,26,31z M58.1,53H33c-1.1,0-1.9-0.9-1.9-2s0.9-2,1.9-2h25.1c1.1,0,1.9,0.9,1.9,2S59.1,53,58.1,53z M58.1,42H33c-1.1,0-1.9-0.9-1.9-2s0.9-2,1.9-2h25.1c1.1,0,1.9,0.9,1.9,2S59.1,42,58.1,42z M58.1,31H33c-1.1,0-1.9-0.9-1.9-2s0.9-2,1.9-2h25.1c1.1,0,1.9,0.9,1.9,2S59.1,31,58.1,31z"/>
</svg>
