<svg xmlns="http://www.w3.org/2000/svg" width="80" height="80" viewBox="-439 241 80 80">
  <path d="M-399 241c-22.1 0-40 17.9-40 40s17.9 40 40 40 40-17.9 40-40-17.9-40-40-40zm-14 53h-4c-1.1 0-2-.9-2-2s.9-2 2-2h4c1.1 0 2 .9 2 2s-.9 2-2 2zm0-11h-4c-1.1 0-2-.9-2-2s.9-2 2-2h4c1.1 0 2 .9 2 2s-.9 2-2 2zm0-11h-4c-1.1 0-2-.9-2-2s.9-2 2-2h4c1.1 0 2 .9 2 2s-.9 2-2 2zm32.1 22H-406c-1.1 0-1.9-.9-1.9-2s.9-2 1.9-2h25.1c1.1 0 1.9.9 1.9 2s-.9 2-1.9 2zm0-11H-406c-1.1 0-1.9-.9-1.9-2s.9-2 1.9-2h25.1c1.1 0 1.9.9 1.9 2s-.9 2-1.9 2zm0-11H-406c-1.1 0-1.9-.9-1.9-2s.9-2 1.9-2h25.1c1.1 0 1.9.9 1.9 2s-.9 2-1.9 2z"/>
</svg>
