<svg xmlns="http://www.w3.org/2000/svg" xmlns:xlink="http://www.w3.org/1999/xlink" viewBox="0 0 145 145">
  <defs>
    <circle id="clipPath-circle" cx="72.5" cy="72.5" r="72.5"/>
  </defs>
  <circle fill="#FFD41A" cx="72.5" cy="72.5" r="72.5"/>
  <clipPath id="clipPath-actual">
    <use xlink:href="#clipPath-circle"/>
  </clipPath>
  <path clip-path="url(#clipPath-actual)" fill="#fff" d="M-0.4,122l-13.9-13.9l5.7-5.7l8.3,8.3l19.6-19.6l5.7,5.7L-0.4,122z"/>
  <path fill="#fff" d="M110.6,64.9l-6.8-6.8l3.5-3.5l3.3,3.3l8.5-8.5l3.5,3.5L110.6,64.9z"/>
  <path fill="#fff" d="M48.3,27.9l-8.6-8.6l3.5-3.5l5,5l12-12l3.5,3.5L48.3,27.9z"/>
  <path clip-path="url(#clipPath-actual)" fill="#fff" d="M129.9,99.8l-12.6-12.6l6.4-6.4l6.3,6.3l15.9-15.9l6.4,6.4L129.9,99.8z"/>
  <path clip-path="url(#clipPath-actual)" fill="#333" d="M72.5,35.5c4.3,0,7.8,1.4,10.7,4.3c2.8,2.8,4.3,6.5,4.5,10.9V81c-0.2,4.3-1.7,7.8-4.5,10.7S76.8,96,72.5,96s-7.8-1.4-10.7-4.3c-2.8-2.8-4.3-6.4-4.5-10.7V50.7c0.2-4.4,1.7-8.1,4.5-10.9C64.7,36.9,68.2,35.5,72.5,35.5L72.5,35.5L72.5,35.5z M108,81c-0.2,8.9-3.1,16.5-8.7,22.9c-5.6,6.3-12.9,10.3-21.8,11.9V151h-10v-35.3c-8.9-1.6-16.2-5.5-21.8-11.9c-5.6-6.3-8.5-14-8.7-22.9h10c0.2,7,2.7,12.9,7.5,17.6s10.8,7.1,18,7.3c7.1-0.2,13.1-2.6,18-7.3c4.8-4.7,7.3-10.6,7.5-17.6L108,81L108,81z"/>
  <path clip-path="url(#clipPath-actual)" fill="#333" d="M104.5,40.5L89.9,25.9l7.1-7.1l7.5,7.5l18.9-18.9l7.1,7.1L104.5,40.5z"/>
</svg>
